<svg aria-hidden="true" style="position: absolute; width: 0; height: 0; overflow: hidden;" version="1.1" xmlns="http://www.w3.org/2000/svg" xmlns:xlink="http://www.w3.org/1999/xlink">
<defs>
<symbol id="icon-col-md-2" viewBox="0 0 140 32">
<path fill="#737373" style="fill: var(--color1, #737373)" d="M44.119 29.646l5.636 0.117c-1.942-0.671-3.826-1.489-5.636-2.452v2.335zM52.609 28.872v0.773l-2.855 0.117c5.371 1.824 10.285 2.072 13.934 1.051-2.928 0.029-6.739-0.379-11.080-1.941zM112.776 12.060c2.34 0 4.252-1.883 4.252-4.218s-1.898-3.576-4.252-3.576c-2.34 0-4.252 1.255-4.252 3.576s1.898 4.218 4.252 4.218zM108.509 29.646h8.519v-16.127h-8.519v16.127zM97.665 29.646h8.519v-28.503l-8.519 3.984v24.518zM93.103 12.22c-2.678-2.656-7.416-2.496-7.416-2.496s-4.753-0.161-7.416 2.496c-2.678 2.656-2.472 4.947-2.472 7.677s-0.206 5.006 2.472 7.662c2.678 2.656 7.416 2.496 7.416 2.496s4.753 0.161 7.416-2.496c2.679-2.656 2.472-4.933 2.472-7.662-0.015-2.744 0.191-5.035-2.472-7.677zM87.247 22.713c0 0.525-0.265 1.824-1.574 1.824s-1.575-1.299-1.575-1.824v-5.896c0-1.27 1.074-1.591 1.575-1.591s1.574 0.306 1.574 1.591v5.896zM71.62 12.22c-2.678-2.656-7.416-2.496-7.416-2.496s-4.738-0.161-7.416 2.496c-0.28 0.277-0.544 0.569-0.78 0.876-5.621-4.32-10.668-6.786-15.023-8.917v-3.021l-3.311 1.547c-8.005-3.225-13.096-2.656-14.317 0.015 0 0-3.664 4.787 9.093 16.17v10.756h8.52v-4.174c-0.956-0.613-1.913-1.27-2.855-1.985-2.178-1.635-4.032-3.152-5.65-4.583v-4.524c1.928 2.145 4.488 4.583 7.857 7.341l0.662 0.525v-4.349c0-1.007 0.25-2.656 1.589-2.656s1.56 1.007 1.56 2.189v7.107c2.649 1.781 5.488 3.225 8.49 4.32v-13.704c0-2.729-1.972-5.458-5.974-5.458-2.325-0.015-4.488 1.197-5.665 3.196v-7.925c6.165 3.050 12.345 6.786 14.7 8.508-1.501 2.131-1.368 4.101-1.368 6.378 0 2.729-0.206 5.006 2.472 7.662s7.416 2.496 7.416 2.496 4.753 0.16 7.416-2.496c2.678-2.656 2.457-4.933 2.457-7.662 0-2.7 0.221-4.991-2.457-7.633zM32.451 5.127v9.238c-7.166-7.954-5.724-11.092-5.179-11.544 1.986-1.664 5.518-1.168 9.476 0.306l-4.297 1.999zM65.779 22.713c0 0.525-0.265 1.824-1.574 1.824s-1.575-1.299-1.575-1.824v-5.896c0-1.27 1.074-1.591 1.575-1.591s1.574 0.306 1.574 1.591v5.896z"></path>
</symbol>
<symbol id="icon-col-md-21" viewBox="0 0 79 32">
<path  style="fill: var(--color1, #737373)" d="M17.085 0.54h6.84v18.449c0 2.926 1.319 4.667 2.392 5.392-1.117 0.981-4.502 1.848-7.052-0.248-1.495-1.238-2.18-3.297-2.18-5.215v-18.378zM59.807 15.877v-1.945h2.092v-6.789h-2.295c-0.888-4.093-4.502-7.134-8.819-7.134-4.977 0-9.030 4.066-9.030 9.078v15.841c1.407 0.203 3.112-0.027 4.546-1.238 1.504-1.238 2.181-3.288 2.181-5.215v-0.592h3.411v-6.789h-3.411v-2.060c0-3.059 4.59-3.059 4.59 0v6.816c0 5.003 4.044 9.078 9.030 9.078v-6.762c-1.275 0-2.295-1.034-2.295-2.289zM33.931 7.125v9.989c0 1.361-2.093 1.361-2.093 0v-9.989h-6.753v11.73c0 2.104 0.703 4.773 3.957 5.649 3.253 0.866 5.117-0.937 5.117-0.937-0.185 1.185-1.275 2.060-3.069 2.236-1.363 0.141-3.095-0.318-3.957-0.69v6.214c2.207 0.663 4.528 0.866 6.823 0.415 4.141-0.804 6.753-4.278 6.753-8.911v-15.752h-6.779v0.044z"></path>
</symbol>
<symbol id="fa" viewBox="0 0 44 32">
<path   d="M43.52 0.062c-5.494 3.705-6.079 6.393-6.555 7.216-0.456 0.843-0.796 4.168-1.584 5.778-0.796 1.631-3.686 2.917-4.495 3.456-0.796 0.539-1.924 2.633-2.849 4.437-7.351-0.304-11.383 2.682-17.626 6.469 1.999-0.67 2.944-1.154 2.944-1.154 6.406-2.488 9.472-4.721 19.115-3.4 0.075 0 0.129 0.041 0.19 0.055 0.265 0.152 0.36 0.477 0.211 0.746l-3.665 6.621c-0.17 0.325-0.53 0.498-0.891 0.422-8.622-1.645-15.429 1.196-21.685 1.286-4.991 0.076-6.63-2.315-6.63-2.426 0-0.076 0.041-0.117 0.116-0.117 0 0 2.604 0 7.011-1.057 5.005-9.697 9.466-13.090 14.321-13.090 0 0 4.876 0 6.161 4.278 1.55-2.744 1.924-3.4 1.924-3.4 0.36-0.65 2.38-5.336 5.875-9.773 3.502-4.423 6.147-5.522 8.112-6.345z"></path>
</symbol>
</defs>
</svg>
